<svg fill="none" height="380" viewBox="0 0 380 380" width="380" xmlns="http://www.w3.org/2000/svg" xmlns:xlink="http://www.w3.org/1999/xlink"><clipPath id="a"><path d="m0 0h379.1v379.1h-379.1z"/></clipPath><g clip-path="url(#a)"><path d="m379.1 0h-379.1v379.1h379.1z"/><path d="m189.56 57.2302c-54.4 0-98.49 44.0998-98.49 98.4898-.03-1.06 0 1.06 0 0l.07 132.78c.53 18.28 15.51 32.94 33.92 32.94s33.53-14.66 34.06-32.94v-34.93h30.43c54.4 0 98.5-43.46 98.5-97.86s-44.1-98.4898-98.49-98.4898zm-30.42 128.3498v-29.86c0-16.74 13.68-30.31 30.42-30.31s30.31 13.57 30.31 30.31-13.57 29.86-30.31 29.86l-30.44.02z" fill="#e72264"/><path d="m124.24 253.58h34.86v34.93h-.16c-.53 18.28-15.5 32.94-33.9 32.94s-33.38-14.66-33.91-32.94h-.01v-.44c0-.18-.01-.37-.01-.55s.01-.36.01-.54v-2.46c1.04-16.35 16.48-30.93 33.11-30.93z" fill="#1d1d1b" opacity=".15"/><g fill="#000" opacity=".75"><g opacity=".05"><path d="m91.1699 211.57v42c0-37 31.0901-67.45 67.9901-67.96v-13.39c-27.44 2.89-51.72 17.65-67.9901 39.36z" opacity=".5"/><path d="m91.22 285.17c8.01-5.88 17.73-9.34 28.23-9.34h39.72v-22.26h-34.03c-17.98 0-32.67 13.95-33.92 31.6z"/></g><g opacity=".05"><path d="m159.17 185.61v-12.17c-27.66 2.71-52.07 17.8-67.9901 39.96v40.17c0-37 31.0901-67.45 67.9901-67.96z" opacity=".5"/><path d="m125.14 253.57c-17.49 0-31.88 13.2-33.79 30.19 8-6.25 17.89-9.95 28.62-9.95h39.2v-20.24z"/></g><g opacity=".05"><path d="m159.17 185.61v-10.94c-27.91 2.53-52.47 17.99-67.9901 40.64v38.26c0-37 31.0901-67.45 67.9901-67.96z" opacity=".5"/><path d="m125.14 253.57c-17 0-31.0701 12.47-33.6001 28.76 7.96-6.6 18.0101-10.55 28.9501-10.55h38.68v-18.21z"/></g><g opacity=".05"><path d="m159.17 185.61v-9.71c-28.2 2.33-52.93 18.21-67.9901 41.42v36.26c0-37 31.0901-67.45 67.9901-67.96z" opacity=".5"/><path d="m125.14 253.57c-16.51 0-30.2701 11.77-33.3601 27.37 7.89-6.97 18.0801-11.18 29.2201-11.18h38.16v-16.19h-34.03z"/></g><g opacity=".05"><path d="m159.17 185.61v-8.47c-28.53 2.12-53.45 18.49-67.9901 42.31v34.13c0-37 31.0901-67.45 67.9901-67.96z" opacity=".5"/><path d="m125.14 253.57c-16.02 0-29.43 11.07-33.05 25.97 7.79-7.33 18.1-11.81 29.43-11.81h37.65v-14.17h-34.03z"/></g><g opacity=".05"><path d="m159.17 185.61v-7.23c-28.9 1.89-54.06 18.83-67.9901 43.33v31.86c0-37 31.0901-67.45 67.9901-67.96z" opacity=".5"/><path d="m125.14 253.57c-15.51 0-28.58 10.38-32.67 24.57 7.65-7.69 18.07-12.43 29.57-12.43h37.13v-12.14z"/></g><g opacity=".05"><path d="m159.17 185.61v-5.98c-29.35 1.65-54.79 19.26-67.9901 44.56v29.38c0-37 31.0901-67.45 67.9901-67.96z" opacity=".5"/><path d="m125.14 253.57c-14.99 0-27.7001 9.7-32.2301 23.17 7.4801-8.04 17.9901-13.05 29.6501-13.05h36.61v-10.12z"/></g><g opacity=".05"><path d="m159.17 185.61v-4.72c-29.89 1.38-55.68 19.82-67.9901 46.05v26.63c0-37 31.0901-67.45 67.9901-67.96z" opacity=".5"/><path d="m125.14 253.57c-14.48 0-26.8301 9.05-31.7401 21.8 7.2701-8.4 17.8601-13.7 29.6701-13.7h36.09v-8.1h-34.03z"/></g><g opacity=".05"><path d="m159.17 185.61v-3.44c-30.57 1.1-56.8 20.58-67.9901 47.96v23.44c0-37 31.0901-67.45 67.9901-67.96z" opacity=".5"/><path d="m125.14 253.57c-13.95 0-25.93 8.41-31.18 20.43 7.01-8.76 17.67-14.35 29.62-14.35h35.58v-6.07h-34.03z"/></g></g></g></svg> 